<?xml version="1.0" standalone="no"?>
<!DOCTYPE svg PUBLIC "-//W3C//DTD SVG 20010904//EN"
 "http://www.w3.org/TR/2001/REC-SVG-20010904/DTD/svg10.dtd">
<svg version="1.0" xmlns="http://www.w3.org/2000/svg"
 width="260.000000pt" height="260.000000pt" viewBox="0 0 260.000000 260.000000"
 preserveAspectRatio="xMidYMid meet">
<metadata>
Created by potrace 1.14, written by Peter Selinger 2001-2017
</metadata>
<g transform="translate(0.000000,260.000000) scale(0.100000,-0.100000)"
fill="#000000" stroke="none">
<path d="M0 1300 l0 -1300 1300 0 1300 0 0 1300 0 1300 -1300 0 -1300 0 0
-1300z m2590 0 l0 -1290 -1290 0 -1290 0 0 1290 0 1290 1290 0 1290 0 0 -1290z"/>
<path d="M1190 2362 c-152 -18 -277 -61 -392 -135 -153 -97 -236 -229 -251
-399 -3 -39 -1 -48 12 -49 64 -4 404 -3 407 2 2 3 6 20 9 39 13 74 58 124 150
167 55 26 69 28 175 27 102 0 121 -3 170 -26 137 -64 190 -208 129 -348 -26
-58 -63 -96 -119 -122 -40 -19 -67 -22 -232 -26 -104 -2 -188 -7 -189 -10 -1
-10 -1 -294 0 -312 1 -13 28 -15 175 -17 231 -3 307 -26 373 -115 44 -60 62
-189 37 -262 -28 -79 -107 -151 -194 -177 -54 -16 -202 -22 -259 -10 -140 30
-218 101 -245 223 l-6 27 -213 -2 -212 -2 3 -40 c18 -248 171 -425 439 -509
120 -37 200 -49 333 -50 265 0 489 74 636 211 126 118 183 315 147 508 -28
151 -114 264 -254 335 l-79 39 56 31 c123 71 214 185 243 304 25 102 4 284
-44 376 -21 42 -79 114 -120 152 -78 70 -274 147 -415 163 -70 8 -229 12 -270
7z"/>
</g>
</svg>
